<svg width="223" height="261" viewBox="0 0 223 261" fill="none" xmlns="http://www.w3.org/2000/svg">
<path d="M44.0002 145.789C45.2002 148.189 45.5002 154.122 45.5002 156.789C54.8792 148.262 77.5256 141.099 100.5 135.648C131.416 128.312 158.926 125.075 159.5 124.788C160.5 124.288 161.667 110.288 162 104.288C187.6 97.4885 191.334 81.7885 190 74.7885C191 71.2885 193.5 52.2885 183 35.2885C174.6 21.6885 160.834 17.6218 155 17.2885C153.5 13.2885 145.5 9.05776 142.5 7.78852C111.3 -5.41153 82.5002 2.28852 72.0002 7.78852C66.0002 9.78852 64.0002 15.4113 60.0002 16.2885C3.00016 28.7885 1.50017 65.7885 0.500168 80.2885C0.630361 94.2231 10.0002 106.788 21.5002 114.288C33.0002 121.788 34.5002 123.122 39.0002 122.788C40.1668 129.455 42.8002 143.389 44.0002 145.789Z" fill="#7f1d1d" stroke="#7f1d1d"/>
<path d="M55.0002 240.788C48.9471 234.735 40.5002 221.288 39.5002 212.788C39.5002 211.622 38.8002 209.288 36.0002 209.288C32.5002 209.288 15.5002 195.288 20.0002 180.288C23.6002 168.288 35.5002 167.955 41.0002 169.288C41.8335 165.622 44.0002 159.788 47.0002 155.788C50.0002 151.789 55.5002 145.288 75.0002 138.788C94.5002 132.288 171.037 116.257 188.5 180.288C190 185.789 189 213.789 186.5 221.289C184 228.789 175 253.289 128 257.288C81.0002 261.288 63.0002 248.788 55.0002 240.788Z" fill="white" stroke="#7f1d1d" stroke-width="4"/>
<path d="M91.8591 176.777C94.4773 171.103 114.094 170.827 122.981 171.058C142.057 182.649 160 168.289 160.881 168.264C161.762 168.239 159.079 168.32 165.819 167.332C174.244 166.097 189.231 165.296 189.902 167.245C190.573 169.194 183.362 172.833 185.354 172.659C186.948 172.521 194.609 175.2 198.24 176.557C209.278 182.289 228.851 194.974 218.837 199.86C206.319 205.968 191.592 198.215 194.386 201.485C197.18 204.755 195.685 204.885 195.729 205.383C188.643 209.902 179.639 204.475 175.955 201.713C181.036 206.382 179.698 207.782 178.381 207.896C157.698 206.684 162.5 198.789 150.031 199.32C137.563 199.852 124.577 214.416 120.318 215.456C112.023 218.185 115.402 210.865 113.128 213.572C107.853 219.851 95.7586 221.607 91.687 220.958C88.4297 220.438 90.8638 215.341 92.4881 212.858C83.4498 216.655 66.2178 216.648 64.8749 212.75C61.8757 204.044 87.6651 188.183 99.3094 181.649C98.8113 181.693 90.1699 180.437 91.8591 176.777Z" fill="#7f1d1d"/>
<path d="M122.981 171.058C114.094 170.827 94.4773 171.103 91.8591 176.777C90.1699 180.437 98.8113 181.693 99.3094 181.649C87.6651 188.183 61.8757 204.044 64.8749 212.75C66.2178 216.648 83.4498 216.655 92.4881 212.858C90.8638 215.341 88.4297 220.438 91.687 220.958C95.7586 221.607 107.853 219.851 113.128 213.572C115.402 210.865 112.023 218.185 120.318 215.456C124.577 214.416 137.563 199.852 150.031 199.32C162.5 198.789 157.698 206.684 178.381 207.896C179.71 207.781 181.058 206.358 175.825 201.594C169.285 195.638 184.792 212.357 195.729 205.383C195.685 204.885 197.18 204.755 194.386 201.485C191.592 198.215 206.319 205.968 218.837 199.86C228.851 194.974 209.278 182.289 198.24 176.557C194.609 175.2 186.948 172.521 185.354 172.659C183.362 172.833 190.573 169.194 189.902 167.245C189.231 165.296 174.244 166.097 165.819 167.332C159.079 168.32 161.762 168.239 160.881 168.264C160 168.289 142.057 182.649 122.981 171.058Z" stroke="#7f1d1d"/>
<path d="M58.0719 160.89C60.2386 167.39 94.6198 163.14 120.572 148.389C135.572 141.389 151.072 146.39 157.572 149.89C164.072 153.39 193.572 159.39 203.072 156.39C210.672 153.99 190.572 140.39 179.572 133.89C184.072 132.89 187.072 135.99 187.072 132.39C187.072 128.79 173.667 124.955 165 122.789C170.5 120.289 167.072 118.65 165.572 118.39C142.572 114.389 141.072 131.89 137.572 125.89C134.072 119.89 107.072 117.39 103.572 118.39C100.772 119.19 104.739 122.056 107.072 123.39C99.0719 121.39 75.0719 128.39 77.0719 132.39C78.6719 135.59 81.0719 137.056 82.0719 137.389C59.0719 146.889 55.9053 154.389 58.0719 160.89Z" fill="#7f1d1d" stroke="white" stroke-width="3"/>
</svg>
